<svg width="94" height="89" viewBox="0 0 94 89" fill="none" xmlns="http://www.w3.org/2000/svg">
<path d="M7.48345 31.1649C7.1996 31.3802 6.92219 31.5205 6.65769 31.5825C6.39964 31.6413 6.22223 31.5988 6.12869 31.452C6.05773 31.3639 6.01579 31.2203 5.99967 31.0213C5.98999 30.8288 6.02547 30.6167 6.10289 30.3817C6.18675 30.1533 6.33836 29.964 6.55447 29.8074C6.75124 29.6573 7.04477 29.4811 7.43184 29.2723C7.82537 29.07 8.2318 28.8742 8.64468 28.6849C8.68661 28.3717 8.69629 28.0193 8.67048 27.6277C8.65113 27.2296 8.60597 26.8184 8.52856 26.4008L2.27084 22.5373C1.73861 22.2077 1.3096 22.0021 0.98059 21.9238C0.645125 21.8455 0.367722 21.8259 0.141928 21.8586L0 21.6497L2.50309 19.8616L2.64501 20.0704C2.46438 20.3151 2.48373 20.5207 2.69662 20.6839C2.91274 20.8503 3.28691 21.0983 3.81914 21.4278L8.02536 23.973L7.03187 19.1306C6.88349 18.5237 6.72221 18.1191 6.54157 17.9168C6.36094 17.7079 6.12224 17.6655 5.83193 17.7863L5.69 17.5774L7.30282 16.4158L7.44475 16.6246C7.29637 16.8595 7.19315 17.1565 7.13509 17.5122C7.08348 17.8613 7.12218 18.3475 7.25121 18.974L8.61887 25.5654C8.84144 26.6553 8.94144 27.5592 8.91563 28.2803C8.88983 28.9916 8.75112 29.5725 8.50275 30.0163C8.25115 30.4666 7.91246 30.8516 7.48345 31.1649Z" fill="#3E5738"/>
<path d="M17.3102 21.1717C16.8716 21.3903 16.3974 21.5306 15.891 21.5893C15.391 21.6513 14.8846 21.6154 14.3685 21.4849C13.8524 21.3479 13.375 21.0999 12.9363 20.7409C12.4912 20.3755 12.1073 19.8729 11.788 19.2269C11.4622 18.5579 11.2815 17.9021 11.2461 17.256C11.2138 16.6131 11.3041 16.0029 11.517 15.4286C11.7235 14.8543 12.0202 14.3518 12.4073 13.9146C12.7944 13.4708 13.2395 13.1184 13.7492 12.8573C14.4459 12.5115 15.0975 12.3581 15.7103 12.4005C16.3297 12.4364 16.8619 12.6093 17.3102 12.9226C17.7651 13.2293 18.1037 13.6111 18.3295 14.0712L12.4589 17.021C12.4847 17.1189 12.517 17.2038 12.5492 17.2821C12.5847 17.3604 12.6234 17.4452 12.6653 17.5301C13.0008 18.2088 13.4298 18.7537 13.9556 19.1616C14.4781 19.563 15.0555 19.7946 15.6845 19.8534C16.3103 19.9154 16.9522 19.7816 17.607 19.4487C18.1812 19.1616 18.6327 18.7929 18.9618 18.3393C19.2972 17.8792 19.5359 17.3865 19.6843 16.8644L19.8907 16.9427C19.8295 17.4322 19.7133 17.9445 19.5424 18.4829C19.3779 19.0246 19.1101 19.5336 18.7424 20.01C18.3811 20.4897 17.9038 20.878 17.3102 21.1717ZM12.3557 16.7991L16.6522 14.6325C16.3845 14.2344 16.0619 13.9113 15.6845 13.6666C15.3039 13.4153 14.9168 13.2587 14.5233 13.1967C14.1265 13.138 13.7492 13.1967 13.3879 13.3794C12.9589 13.5883 12.6492 13.8819 12.4589 14.2539C12.2621 14.6292 12.1621 15.0371 12.1621 15.4809C12.1557 15.9181 12.2202 16.3554 12.3557 16.7991Z" fill="#3E5738"/>
<path d="M26.0757 17.5279C25.4629 17.7204 24.8694 17.8249 24.2952 17.8412C23.7178 17.8608 23.2372 17.8216 22.8501 17.7237L21.9986 15.5831L22.1405 15.4918C22.7501 16.1803 23.4211 16.686 24.1533 17.0058C24.8919 17.3289 25.6371 17.3713 26.3854 17.1363C26.9015 16.9797 27.2628 16.7056 27.4692 16.3141C27.6757 15.916 27.7176 15.5277 27.5982 15.1524C27.4241 14.614 27.0983 14.2779 26.6177 14.1474C26.1338 14.0103 25.4951 13.9483 24.6952 13.9646C24.0823 13.9744 23.534 13.9516 23.0437 13.8994C22.5534 13.8406 22.1502 13.6971 21.8308 13.4687C21.505 13.2337 21.2599 12.865 21.0954 12.3592C20.9664 11.9415 20.9599 11.5108 21.0696 11.067C21.1728 10.6167 21.4276 10.1991 21.8308 9.81401C22.2276 9.43223 22.7985 9.11898 23.5469 8.87425C24.0178 8.72741 24.4952 8.6132 24.979 8.53489C25.4693 8.45657 25.8693 8.43699 26.179 8.46962L26.8628 10.2839L26.6564 10.3753C26.1919 9.87927 25.6532 9.52033 25.0435 9.29192C24.4404 9.05698 23.8339 9.0374 23.2243 9.22666C22.7082 9.40286 22.334 9.66391 22.1018 10.0098C21.8631 10.3492 21.7986 10.6983 21.9082 11.054C22.0566 11.5239 22.3695 11.8208 22.8501 11.9415C23.3307 12.0557 23.9791 12.1243 24.7984 12.1504C25.2887 12.1438 25.7693 12.1602 26.2435 12.2026C26.7241 12.2385 27.1531 12.369 27.5337 12.5942C27.9208 12.8226 28.2047 13.2174 28.3853 13.7819C28.5208 14.2094 28.5563 14.6662 28.4885 15.1524C28.4176 15.6321 28.1982 16.0856 27.8305 16.5098C27.4595 16.9275 26.8757 17.2669 26.0757 17.5279Z" fill="#3E5738"/>
<path d="M39.775 14.723C39.0525 14.7752 38.3977 14.6186 37.8138 14.2531C37.2268 13.8876 36.7558 13.4014 36.3945 12.7913C36.0333 12.1745 35.8204 11.5056 35.7623 10.7812C35.6849 9.88711 35.8075 9.06482 36.1365 8.31431C36.472 7.55728 36.9752 6.93729 37.6461 6.44783C38.3235 5.95185 39.1686 5.66143 40.175 5.57333C40.5363 5.54723 40.8717 5.5668 41.1814 5.62554C41.4975 5.67775 41.791 5.75606 42.0587 5.86048L41.8007 2.78014C41.7555 2.26784 41.6652 1.93827 41.5297 1.78816C41.391 1.64133 41.2104 1.52712 40.9878 1.4488L40.9749 1.21386L43.1684 0L43.349 0.130523L44.3296 11.9037C44.3812 12.5237 44.4586 12.974 44.5618 13.2611C44.6715 13.5483 44.8747 13.7278 45.1683 13.7963L45.1941 14.0443L43.4393 14.2009C42.9813 14.2368 42.7329 14.0182 42.691 13.5483L42.6394 12.8174C42.4329 13.0882 42.1878 13.3656 41.9039 13.6527C41.6265 13.9399 41.3136 14.1846 40.962 14.3836C40.6072 14.5762 40.2137 14.6904 39.775 14.723ZM37.3235 9.22797C37.3558 9.65544 37.4397 10.1253 37.5687 10.6376C37.6977 11.1532 37.8945 11.6394 38.1622 12.0995C38.4267 12.5628 38.7718 12.9414 39.1944 13.235C39.6234 13.5222 40.1524 13.6396 40.7814 13.5874C41.1491 13.5548 41.4846 13.4308 41.7878 13.222C42.0975 13.0066 42.3684 12.7488 42.6007 12.4519L42.291 8.60146C42.2555 8.17726 42.1007 7.75959 41.8265 7.34844C41.5588 6.93077 41.2233 6.59141 40.8201 6.33036C40.4137 6.06932 39.9718 5.96164 39.4911 6.00406C38.8525 6.05627 38.3719 6.25858 38.0461 6.60446C37.7267 6.95361 37.5171 7.36802 37.4138 7.84443C37.3171 8.31431 37.288 8.77767 37.3235 9.22797Z" fill="#3E5738"/>
<path d="M51.1482 14.5991C50.6579 14.5534 50.1805 14.4229 49.716 14.2075C49.2515 13.9987 48.8321 13.7083 48.4644 13.333C48.0935 12.9513 47.8064 12.4912 47.6 11.9495C47.4 11.4013 47.3322 10.7715 47.3935 10.0569C47.4516 9.30967 47.6322 8.65379 47.9354 8.08602C48.2451 7.51171 48.6322 7.03531 49.0967 6.65026C49.5676 6.26848 50.0805 5.99112 50.632 5.81492C51.1901 5.63218 51.7546 5.56692 52.3223 5.61913C53.0964 5.68113 53.7319 5.88997 54.2318 6.24564C54.7383 6.60458 55.1092 7.03531 55.3415 7.53782C55.5737 8.03381 55.6673 8.53632 55.6253 9.03883L49.0837 8.50369C49.0579 8.60158 49.0386 8.69621 49.0321 8.79084C49.0225 8.87894 49.0128 8.97031 49.0063 9.06494C48.945 9.82197 49.0354 10.5105 49.2773 11.1272C49.5257 11.7472 49.9031 12.2432 50.4127 12.6152C50.9288 12.9904 51.5514 13.209 52.2836 13.2678C52.919 13.32 53.49 13.2417 53.9996 13.0328C54.5157 12.824 54.9705 12.5303 55.3673 12.1453L55.5092 12.328C55.206 12.7033 54.8447 13.0785 54.4254 13.4505C54.0028 13.8258 53.5158 14.1194 52.9674 14.3381C52.4158 14.5632 51.8094 14.6513 51.1482 14.5991ZM49.1225 8.2557L53.9093 8.64726C53.8738 8.17738 53.7577 7.74013 53.5609 7.32898C53.3706 6.91131 53.1222 6.57848 52.8126 6.32396C52.5094 6.06291 52.1578 5.91607 51.7546 5.88018C51.2707 5.82797 50.8514 5.91607 50.4901 6.14122C50.1353 6.35985 49.845 6.66005 49.6128 7.04183C49.387 7.41709 49.2257 7.82171 49.1225 8.2557Z" fill="#3E5738"/>
<path d="M57.2271 15.0481L57.2916 14.8131C57.5819 14.787 57.8077 14.6435 57.9625 14.3824C58.1174 14.1148 58.2658 13.6743 58.4141 13.0641L59.3947 9.14843C59.5141 8.65245 59.5366 8.30982 59.4592 8.1173C59.3818 7.92805 59.2528 7.76489 59.0722 7.63437L59.1367 7.38637L61.6011 6.9687L61.7172 7.15143L61.3688 8.57413C61.9172 8.30656 62.53 8.0912 63.201 7.93457C63.8719 7.77142 64.5331 7.77142 65.188 7.93457C65.9621 8.12709 66.533 8.50235 66.904 9.05707C67.2717 9.60527 67.333 10.3819 67.0846 11.3804L66.1685 15.035C66.0202 15.642 65.9524 16.0988 65.9621 16.4055C65.9686 16.7188 66.1072 16.957 66.375 17.1234L66.3105 17.3583L63.2397 16.5882L63.3042 16.3533C63.6042 16.3272 63.8332 16.1771 63.988 15.9095C64.1493 15.6485 64.3041 15.2112 64.4525 14.6043L65.2912 11.2499C65.4783 10.4863 65.4653 9.85 65.2525 9.34422C65.046 8.83192 64.6235 8.49582 63.988 8.33919C63.6009 8.23477 63.1913 8.23477 62.7623 8.33919C62.33 8.43708 61.8397 8.61003 61.2914 8.86128L60.1302 13.5079C59.9818 14.1181 59.914 14.5749 59.9237 14.8784C59.9399 15.1819 60.0786 15.4201 60.3366 15.5963L60.2721 15.8312L57.2271 15.0481Z" fill="#3E5738"/>
<path d="M70.584 19.3449C70.0421 19.1165 69.7067 18.7576 69.5776 18.2616C69.4551 17.7656 69.5712 17.0836 69.926 16.2124L72.1839 10.6521L71.1517 10.2214L71.255 9.96033L74.5193 8.83783L74.7773 8.94225L73.9129 11.0698L76.4031 12.1009L76.2224 12.3358L73.8096 11.3308L71.5388 16.9042C71.3388 17.4001 71.284 17.8015 71.3711 18.105C71.4549 18.4182 71.6743 18.6466 72.0291 18.7967C72.2097 18.875 72.4452 18.9142 72.7387 18.9142C73.029 18.9142 73.3839 18.7967 73.7967 18.5618L73.8742 18.7967C73.2548 19.1263 72.6742 19.3482 72.1323 19.4624C71.5904 19.5831 71.0743 19.544 70.584 19.3449Z" fill="#3E5738"/>
<path d="M80.5483 24.3217C80.1516 24.0932 80.0709 23.7767 80.3032 23.3688L81.7354 20.8759C81.2515 21.3784 80.7322 21.7928 80.1742 22.1158C79.6129 22.4454 79.042 22.6379 78.4581 22.6901C77.8711 22.7489 77.3227 22.6281 76.8066 22.3247C76.255 22.0016 75.8776 21.548 75.6712 20.9672C75.4647 20.3929 75.5422 19.7893 75.9034 19.153C76.2034 18.6243 76.6034 18.2882 77.1034 18.1479C77.6098 18.0109 78.1872 17.9848 78.8323 18.0696C79.4774 18.1479 80.1613 18.285 80.8838 18.4742L82.8321 18.9702C83.245 18.2132 83.3546 17.5704 83.1675 17.0385C82.9869 16.5001 82.616 16.0693 82.0579 15.7463C81.6451 15.5048 81.1741 15.3613 80.6516 15.3156C80.1355 15.2634 79.5548 15.3613 78.9097 15.6027L78.8323 15.3808C79.5548 15.1035 80.2903 14.973 81.0386 14.9893C81.787 15.0088 82.4998 15.2177 83.1805 15.6158C84.0901 16.1477 84.6288 16.784 84.7933 17.5214C84.9546 18.2523 84.7675 19.0844 84.2256 20.0144L82.5482 22.9381C82.2386 23.4765 82.045 23.8942 81.9676 24.1911C81.8967 24.4946 81.9676 24.7589 82.1741 24.9873L82.045 25.1962L80.5483 24.3217ZM77.6066 19.4401C77.3227 19.9296 77.2614 20.3668 77.4259 20.7584C77.5969 21.15 77.8549 21.4502 78.2001 21.659C78.5678 21.8744 78.9613 21.9527 79.3742 21.8939C79.7871 21.8417 80.1903 21.6884 80.587 21.4371C80.9806 21.1924 81.3483 20.9085 81.6838 20.5887C82.0192 20.2591 82.2837 19.9198 82.4837 19.5706L82.7031 19.1791L80.8322 18.6961C80.6257 18.6439 80.3742 18.6015 80.0838 18.5656C79.8 18.5232 79.4968 18.5101 79.1807 18.5264C78.8613 18.546 78.5646 18.6243 78.2904 18.7614C78.013 18.9017 77.7872 19.1268 77.6066 19.4401Z" fill="#3E5738"/>
<path d="M83.6651 26.4877L83.807 26.292C84.0973 26.3964 84.3651 26.3572 84.607 26.1745C84.8554 25.9918 85.1682 25.6491 85.5489 25.1434L91.0969 17.7427C91.3969 17.3348 91.5485 17.0314 91.5485 16.829C91.555 16.6202 91.4969 16.4114 91.3679 16.2025L91.5227 16.0068L93.9484 16.5811L94 16.8029L86.9552 26.2136C86.5746 26.7162 86.3295 27.1143 86.2198 27.4014C86.1166 27.6951 86.1488 27.9692 86.323 28.2237L86.1811 28.4195L83.6651 26.4877Z" fill="#3E5738"/>
<path fill-rule="evenodd" clip-rule="evenodd" d="M60.1403 24.7046C74.4647 28.2518 80.9554 38.3651 78.7918 53.535C77.1505 64.8558 71.1074 78.2144 64.6166 84.705C59.1704 90.29 56.41 89.6862 51.1875 81.9126C49.3224 79.1201 47.6064 77.3842 46.7858 77.3842C45.0698 77.3842 42.2348 80.2522 40.3696 83.7239C36.0425 91.8749 26.2691 88.0258 21.4197 76.2522C18.4354 69.1578 16.1226 57.1577 15.6004 46.4406C15.2274 38.516 15.302 37.4594 16.7195 34.5914C19.6291 28.931 26.4929 25.3084 37.0124 23.7989C42.6078 23.0442 55.2909 23.497 60.1403 24.7046ZM28.1342 36.1762C30.2232 33.6102 40.0712 29.7611 48.9493 28.0252C52.5304 27.346 60.5133 28.1007 63.4975 29.4592L66.4818 30.8177L63.8706 31.5724C62.453 31.9498 56.7084 33.8366 51.1875 35.7234C39.549 39.648 29.9994 40.8555 28.1342 38.5914C27.3135 37.6102 27.3135 37.1574 28.1342 36.1762ZM21.4197 35.3461C16.4211 41.4594 17.6147 58.0633 24.1055 71.3464C27.0151 77.3842 32.9836 84.1767 35.371 84.1767C37.0124 84.1767 38.7283 80.6295 43.5777 67.5728C48.7255 53.6859 52.0828 48.4783 58.0513 44.9311C63.4975 41.8367 66.5564 41.9122 70.0629 45.3084C73.5694 48.7802 75.0615 48.7802 75.0615 45.3084C75.0615 41.9877 73.5694 38.214 71.4058 36.2518C68.8692 33.9876 63.4975 34.4404 51.9336 37.9876C46.4127 39.648 40.295 41.3084 38.4299 41.5348C33.4313 42.2895 28.9549 40.7801 25.6722 37.3084C23.6421 35.1569 22.9273 34.3994 22.3713 34.502C22.069 34.5578 21.8137 34.8677 21.4197 35.3461ZM55.7386 51.9499C56.783 51.0443 59.3943 49.2329 61.6324 48.0254C66.5564 45.3084 67.1533 45.2329 69.1677 47.2707C75.5838 53.7613 73.3456 70.969 64.8405 80.4785C59.6927 86.2144 58.7228 86.0634 51.5606 78.5162C49.0986 75.8747 46.562 73.6105 46.0398 73.4595C45.1445 73.1577 45.2937 72.101 47.0096 67.1953C49.2478 60.8557 52.7543 54.7424 55.7386 51.9499Z" fill="#3E5738"/>
</svg>
